<svg width="24" height="24" viewBox="0 0 24 24" fill="none" xmlns="http://www.w3.org/2000/svg">
<g clip-path="url(#clip0_14_194)">
<path d="M16 16L12 12L8 16" stroke="#252525" stroke-width="2" stroke-linecap="round" stroke-linejoin="round"/>
<path d="M12 12V21" stroke="#252525" stroke-width="2" stroke-linecap="round" stroke-linejoin="round"/>
<path d="M20.39 18.3905C21.3653 17.8587 22.1358 17.0174 22.5799 15.9991C23.0239 14.9808 23.1162 13.8437 22.8422 12.7672C22.5682 11.6906 21.9435 10.736 21.0667 10.0539C20.1899 9.37185 19.1109 9.00121 18 9.00047H16.74C16.4373 7.82971 15.8732 6.74281 15.09 5.82147C14.3067 4.90012 13.3249 4.16832 12.2181 3.68108C11.1114 3.19384 9.90856 2.96383 8.70012 3.00835C7.49169 3.05288 6.30907 3.37077 5.24118 3.93814C4.17329 4.5055 3.24792 5.30758 2.53463 6.28405C1.82134 7.26053 1.3387 8.38601 1.12299 9.57587C0.907276 10.7657 0.964111 11.989 1.28922 13.1537C1.61433 14.3185 2.19925 15.3943 3.00001 16.3005" stroke="#252525" stroke-width="2" stroke-linecap="round" stroke-linejoin="round"/>
<path d="M16 16L12 12L8 16" stroke="#252525" stroke-width="2" stroke-linecap="round" stroke-linejoin="round"/>
</g>
<defs>
<clipPath id="clip0_14_194">
<rect width="24" height="24" fill="white"/>
</clipPath>
</defs>
</svg>
